<svg xmlns="http://www.w3.org/2000/svg" xmlns:xlink="http://www.w3.org/1999/xlink" width="215.5367" height="60.5211" viewBox="0 0 215.5367 60.5211">
  <defs>
    <linearGradient id="linear-gradient" x1="13271.364" y1="14971.4273" x2="13237.764" y2="14913.4263" gradientTransform="translate(13299.2948 14954.7003) rotate(180)" gradientUnits="userSpaceOnUse">
      <stop offset="0" stop-color="#80cd7f"/>
      <stop offset="1" stop-color="#2f9200"/>
    </linearGradient>
  </defs>
  <g id="Layer_2" data-name="Layer 2">
    <g id="Layer_1-2" data-name="Layer 1">
      <g>
        <path d="M75.4681,36.0131l-.9922,7.2508H54.4025V42.806c2.595,0,2.7477-1.9081,2.7477-4.7321V20.6719c0-2.824-.1527-4.7321-2.7477-4.7321v-.458H73.9034l.5343,6.4876H73.98c-2.328-4.236-3.7781-5.419-8.0142-5.419H62.7983V28.19H65.05c3.74,0,4.694-1.1066,5.5718-3.549h.4579v8.6628h-.4579C69.7056,30.67,68.79,29.411,65.05,29.411H62.7983V40.4018c0,1.1067.3434,1.7936,1.5263,1.7936h2.099c3.8926,0,5.877-.954,8.5866-6.1823Z"/>
        <path d="M88.4775,23.2669h5.61v.458c-1.1067.229-2.0608,1.7936-3.5108,5.7243L85.1574,43.9127h-.7632L78.0973,27.8083c-1.0684-2.6332-1.6408-3.8544-2.9384-4.0834v-.458H84.356v.458c-1.7173.1526-1.7555,1.2593-1.0686,3.053l3.5492,9.426,2.595-7.06c1.3738-3.74.7251-5.1519-.9541-5.419Z"/>
        <path d="M109.9983,38.4555c-1.5647,2.6332-3.9307,5.2664-8.2049,5.2664-5.7244,0-8.7009-4.6558-8.7009-10.113,0-6.0678,3.9688-10.8,9.6168-10.8,4.8085,0,7.5561,3.282,7.2508,8.3957H98.5114c0,5.9151,1.7174,9.5406,5.8389,9.5406a6.514,6.514,0,0,0,4.961-2.71ZM98.55,30.06h6.6784c.3054-4.0833-.2671-6.2586-2.6713-6.2586C99.9235,23.8012,98.74,26.6634,98.55,30.06Z"/>
        <path d="M125.1834,23.1143l-1.1067,4.8848h-.3816a4.2088,4.2088,0,0,0-3.1294-1.5265,3.3863,3.3863,0,0,0-2.3659.9921V39.0661c0,2.4424.1143,3.74,1.679,3.74v.4579h-8.7009V42.806c1.5646,0,1.6791-1.2975,1.6791-3.74V28.457c0-2.4424-.6488-3.1293-1.9463-3.5872v-.458l6.9838-1.5265H118.2v3.511c1.6027-2.2135,3.4345-3.5873,5.4189-3.5873A3.9308,3.9308,0,0,1,125.1834,23.1143Z"/>
        <path d="M137.47,38.6845c4.1979,0,6.4876,1.8318,6.4876,5.19,0,5.152-6.0678,8.5484-11.7158,8.5484-4.9229,0-7.1745-2.2516-7.1745-4.6176,0-2.1753,1.641-3.1675,3.3583-4.0071l.6106-.2671h.9159a4.2053,4.2053,0,0,0-.84,2.6713c0,2.8241,2.2134,4.465,5.9914,4.465,3.1293,0,5.61-1.5646,5.61-4.3123,0-1.9845-1.3738-3.2438-4.0452-3.2438h-7.4035c-2.4424,0-3.5109-1.3357-3.5109-3.0911s1.3357-3.0912,3.6254-4.3887a6.217,6.217,0,0,1-3.8162-5.9915c0-4.0833,3.1293-6.831,7.8233-6.831a9.87,9.87,0,0,1,3.8161.6869l6.7548-.5724-.6869,2.48-3.7781-.3434a6.41,6.41,0,0,1,1.641,4.4649c0,4.1216-3.0912,6.8311-7.7851,6.8311a10.5983,10.5983,0,0,1-2.9766-.3817c-.8778.6488-1.1449,1.03-1.1449,1.6029,0,.6106.42,1.1067,1.6028,1.1067Zm-7.2508-9.1208c0,3.4728.7633,5.8006,3.1293,5.8006s3.0911-2.3278,3.0911-5.8006-.7251-5.7625-3.0911-5.7625C131.02,23.8012,130.2187,26.091,130.2187,29.5637Z"/>
        <path d="M158.57,23.1143l-1.1067,4.8848h-.3816a4.2088,4.2088,0,0,0-3.1294-1.5265,3.3865,3.3865,0,0,0-2.366.9921V39.0661c0,2.4424.1145,3.74,1.6791,3.74v.4579h-8.7009V42.806c1.5645,0,1.679-1.2975,1.679-3.74V28.457c0-2.4424-.6486-3.1293-1.9462-3.5872v-.458l6.9837-1.5265h.3053v3.511c1.6028-2.2135,3.4346-3.5873,5.419-3.5873A3.9312,3.9312,0,0,1,158.57,23.1143Z"/>
        <path d="M175.4733,38.4555c-1.5647,2.6332-3.9308,5.2664-8.2049,5.2664-5.7243,0-8.701-4.6558-8.701-10.113,0-6.0678,3.9689-10.8,9.6169-10.8,4.8084,0,7.5561,3.282,7.2508,8.3957H163.9865c0,5.9151,1.7173,9.5406,5.8387,9.5406a6.5144,6.5144,0,0,0,4.9611-2.71ZM164.0246,30.06h6.6785c.3051-4.0833-.2673-6.2586-2.6714-6.2586C165.3985,23.8012,164.2154,26.6634,164.0246,30.06Z"/>
        <path d="M193.75,38.4555c-1.5647,2.6332-3.9308,5.2664-8.205,5.2664-5.7244,0-8.7009-4.6558-8.7009-10.113,0-6.0678,3.9689-10.8,9.6168-10.8,4.8085,0,7.5562,3.282,7.2509,8.3957H182.2626c0,5.9151,1.7174,9.5406,5.8389,9.5406a6.5144,6.5144,0,0,0,4.9611-2.71ZM182.3008,30.06h6.6784c.3054-4.0833-.2671-6.2586-2.6713-6.2586C183.6747,23.8012,182.4916,26.6634,182.3008,30.06Z"/>
        <path d="M213.8576,39.0661c0,2.4424.1145,3.74,1.6791,3.74v.4579h-8.701V42.806c1.5646,0,1.6791-1.2975,1.6791-3.74v-8.93c0-2.6331-.4579-4.3123-2.9385-4.3123a7.0845,7.0845,0,0,0-3.6253,1.2212V39.0661c0,2.4424.1144,3.74,1.6791,3.74v.4579h-8.701V42.806c1.5646,0,1.6791-1.2975,1.6791-3.74V28.457c0-2.4424-.6488-3.1293-1.9463-3.5872v-.458l6.9838-1.5265h.3053v3.0912a10.6527,10.6527,0,0,1,6.9454-3.1675c3.282,0,4.9612,2.1371,4.9612,5.9533Z"/>
      </g>
      <g id="_ÎÓÈ_1" data-name=" ÎÓÈ 1">
        <path d="M37.8961.494a.0947.0947,0,0,0,0-.0375Z" fill="url(#linear-gradient)"/>
        <path d="M28.766,24.47a65.3753,65.3753,0,0,1,4.49-10.6309h0c-3.4895,2.1512-5.872,11.8-9.1739,19.5672a26.4831,26.4831,0,0,0-6.1784-4.3212v-.5128c-.1626-9.1863,4.5338-13.72,12.3569-19.2482C37.64,4.1023,38.0149.8755,37.8961.494c.6253,1.2007,15.3522,31.1423-9.2739,39.4344a18.6252,18.6252,0,0,0-3.2769-5.2091C26.521,31.3112,27.5841,27.7029,28.766,24.47Z" fill="#009840"/>
        <path d="M28.0093,51.0346s-1.382-4.071-6.391-9.38c-7.3291-7.8043-12.976-8.43-12.976-8.43C31.2674,47.0386,26.2646,60.5211,26.2646,60.5211,26.2646,47.7515,0,56.3125,0,20.3426c0,0,5.0028,3.79,16.9282,9.7866C32.393,37.9086,28.0093,51.0346,28.0093,51.0346Z" fill="#009840"/>
        <path d="M.075,0S18.9605,7.129,16.7968,23.4943a30.6854,30.6854,0,0,0-9.38-14.7019s8.6924,13.1323,7.01,18.06C14.4518,26.8524-.6253,20.1612.075,0Z" fill="#009840"/>
      </g>
    </g>
  </g>
</svg>
