<?xml version="1.0" encoding="UTF-8"?><svg xmlns="http://www.w3.org/2000/svg" viewBox="0 0 135.44344 237.33916"><g id="a"/><g id="b"><g id="c"><g><g><path d="M93.47992,59.17913c-4.2779,10.43876-19.0708,14.04874-33.04087,8.0631s-21.82714-19.30024-17.54924-29.73901C47.1677,27.06446,73.30659-4.23157,87.27666,1.75407c13.97008,5.98564,10.48116,46.98629,6.20326,57.42506Z" style="fill:#beedc0; stroke:#000; stroke-miterlimit:10; stroke-width:2px;"/><path d="M87.27666,1.75407l-26.83761,65.48816c-7.5296,32.09898,13.44757,99.5764,56.10181,156.80273" style="fill:none; stroke:#000; stroke-miterlimit:10; stroke-width:2px;"/></g><g><path d="M89.4568,181.73128c11.1919,1.41759,18.52281,14.76374,16.37404,29.80946-2.14877,15.04572-12.96351,26.0935-24.15541,24.67591-11.1919-1.41759-48.20636-18.52352-46.05759-33.56924,2.14877-15.04572,42.64706-22.33372,53.83896-20.91613Z" style="fill:#beedc0; stroke:#000; stroke-miterlimit:10; stroke-width:2px;"/><line x1="105.83085" y1="211.54073" x2="35.61785" y2="202.64741" style="fill:none; stroke:#000; stroke-miterlimit:10; stroke-width:2px;"/></g><g><path d="M59.63744,88.44574c10.20351,4.81213,13.04347,19.77196,6.34323,33.41372-6.70024,13.64176-20.40344,20.79959-30.60695,15.98746C25.1702,133.03479-4.73186,105.31207,1.96838,91.67031c6.70024-13.64176,47.46555-8.0367,57.66906-3.22457Z" style="fill:#beedc0; stroke:#000; stroke-miterlimit:10; stroke-width:2px;"/><line x1="65.98067" y1="121.85946" x2="1.96838" y2="91.67031" style="fill:none; stroke:#000; stroke-miterlimit:10; stroke-width:2px;"/></g><g><path d="M100.93461,171.241c-10.02466,5.1744-23.62799-1.66748-30.38389-15.28176-6.7559-13.61428-4.10604-28.84552,5.91861-34.01991,10.02466-5.1744,50.21574-12.05623,56.97164,1.55805,6.7559,13.61428-22.48171,42.56923-32.50636,47.74363Z" style="fill:#beedc0; stroke:#000; stroke-miterlimit:10; stroke-width:2px;"/><line x1="70.55072" y1="155.95923" x2="133.44097" y2="123.49737" style="fill:none; stroke:#000; stroke-miterlimit:10; stroke-width:2px;"/></g></g></g></g></svg>